<svg xmlns="http://www.w3.org/2000/svg" viewBox="0 0 621.91 123.81"><defs><style>.cls-1{fill:#d40000;}.cls-2{fill:#fff;}</style></defs><title>adwork-logo-white</title><g id="Layer_2" data-name="Layer 2"><g id="Layer_8" data-name="Layer 8"><path id="Path_187" data-name="Path 187" class="cls-1" d="M172,46.4a10.41,10.41,0,0,0-4.3,1l-40.3-33.66A10.36,10.36,0,0,0,107.82,7H57A10.36,10.36,0,0,0,37.38,13.7a13.26,13.26,0,0,0,.51,1.23L14.08,38.74a10.37,10.37,0,1,0,0,19.37l4.8,4.8A10.36,10.36,0,0,0,37.49,72l.11-.23,7.61.76a10.31,10.31,0,0,0,12.37,7.72l.47-.12,9.2,13.42a10.36,10.36,0,1,0,18.65,6.71L95,97.64a10.34,10.34,0,0,0,14.36,2.78,8.05,8.05,0,0,0,.66-.49l17,10.87a10.36,10.36,0,1,0,13.74-7v-19a10.38,10.38,0,0,0,7.57-10,11.71,11.71,0,0,0-.09-1.32l16.85-8.94A10.36,10.36,0,1,0,172,46.41Zm-41.22,58.8-17.14-11a11,11,0,0,0,.3-2.43,11.9,11.9,0,0,0-.1-1.33l16.86-8.35a10.52,10.52,0,0,0,3.34,2.21v19.16A10.34,10.34,0,0,0,130.82,105.2Zm.83-62A10.39,10.39,0,0,0,123.6,34L122,19.76a11.07,11.07,0,0,0,1.3-.73l37.75,31.54ZM110.89,84.45a10.33,10.33,0,0,0-7.28-3h-.09L97.66,64.88a10.29,10.29,0,0,0,1.5-1.45l28.51,11c0,.13,0,.25,0,.37a12.08,12.08,0,0,0,.1,1.34ZM41,39.59l6.27-18.84a9.31,9.31,0,0,0,1.83-.18l6.73,11.82a10.38,10.38,0,0,0-2.2,5Zm30-8.16a10.25,10.25,0,0,0-9.47-2.6l-6.3-11.06L77.59,27.93Zm3.1,6,11.18-6,13.06,5.95-5.24,9.2a10.3,10.3,0,0,0-8.51,2.18L73.76,42.1a10,10,0,0,0,.38-4.69ZM113.82,37l-5.94-2.7,7.53-13.23,1.5,13.69a10.2,10.2,0,0,0-3.1,2.24Zm-12.09-5.51L92.8,27.45l16.13-8.61Zm28.36,36.6-28.52-11c0-.13,0-.25,0-.37A10.29,10.29,0,0,0,99,49.93l5.55-9.74,6.48,3a8.26,8.26,0,0,0-.06,1,10.32,10.32,0,0,0,10.25,10.37,10.43,10.43,0,0,0,1.85-.16l7.33,13.44a3,3,0,0,0-.3.32Zm-45-44.17L62.73,13.76h41.42Zm-51.61,17-14,2.48a3.45,3.45,0,0,0-.2-.32L39.49,22.86ZM20.64,50,31.05,48.2l-3,8.88a10.36,10.36,0,0,0-4.45,1.06l-4.37-4.37A10.18,10.18,0,0,0,20.64,50Zm13.83,9.18,4.12-12.36L54.86,44a10.29,10.29,0,0,0,3.55,3.72L54.83,59.8a10.36,10.36,0,0,0-9,6l-7.61-.76a10.39,10.39,0,0,0-3.79-5.84ZM65.65,70.14a10.35,10.35,0,0,0-4.36-8.43L65,49.22a10.21,10.21,0,0,0,4.71-1.71l11.42,7a10.32,10.32,0,0,0,3.59,10.3l-9,24.53h-.19a10.32,10.32,0,0,0-2.76.38L63.6,76.3a10.29,10.29,0,0,0,2.05-6.16ZM82.08,91.66l9-24.53h.28l5.86,16.57a10.37,10.37,0,0,0-3.89,7.43l-9.23,2.64a10.72,10.72,0,0,0-2-2.12ZM138,64.4a9.13,9.13,0,0,0-1.73.16L129,51.12A9.77,9.77,0,0,0,130,49.77l31.69,7.9c0,.33.08.65.13,1l-16.53,8.77a10.32,10.32,0,0,0-7.29-3Z"/><g id="Group_231" data-name="Group 231"><path id="Path_152" data-name="Path 152" class="cls-2" d="M242.62,37.71c-9.52-.18-18.59,2.65-24.87,7.77l-1.58,1.29L222,56.84,224.17,55c4.4-3.74,10.93-5.9,17.47-5.77,9.23.18,13.64,4.41,13.47,12.91l0,1.06-15.67-.3c-22-.44-24.62,12.47-24.73,18-.23,11.34,8.94,19.14,22.8,19.42,7,.13,12.94-1.63,17.29-5.06l-.1,4.85,12.16.24.74-37.68C267.9,46.91,259,38,242.62,37.71ZM238.9,89.5c-3.6-.07-12-1-11.83-8.55.07-3.62,1.54-7.75,12.36-7.53l15.46.3-.13,6.43c-2.86,6.26-8.34,9.5-15.86,9.35Z"/><path id="Path_153" data-name="Path 153" class="cls-2" d="M328,44.79a27.84,27.84,0,0,0-19.25-7.1C291,37.69,278,50.85,278,69S291,100.4,308.79,100.4c7.81,0,14.55-2.58,19.57-7.38v6.84h12.16V14.75H328Zm.1,24.2c0,11.66-7.69,19.79-18.7,19.79S290.63,80.65,290.63,69s7.74-19.78,18.81-19.78,18.7,8.13,18.7,19.79Z"/><path id="Path_154" data-name="Path 154" class="cls-2" d="M434.41,38.13,418,82.07,401.48,38.13h-9.92L375,82.05,358.74,38.13h-12.5l23.24,61.73H380l16.32-42.37,16.32,42.37h10.56l23.35-61.73Z"/><path id="Path_155" data-name="Path 155" class="cls-2" d="M476.35,37.69c-18.2,0-31.41,13.17-31.41,31.3s13.21,31.41,31.41,31.41,31.3-13.21,31.3-31.41S494.48,37.69,476.35,37.69ZM495.05,69c0,11.65-7.69,19.79-18.7,19.79S457.53,80.64,457.53,69s7.74-19.79,18.82-19.79,18.7,8.14,18.7,19.8Z"/><path id="Path_156" data-name="Path 156" class="cls-2" d="M530.7,44.22V38.13H518.54V99.86H531V68.46c0-12,6-18.6,16.76-18.6.19,0,.4,0,.63,0,.39,0,.8.06,1.21.06H552V37.69h-2.4C541.6,37.69,535.19,39.93,530.7,44.22Z"/><path id="Path_157" data-name="Path 157" class="cls-2" d="M593.56,64l27.1-25.89H604.22l-30.66,28V14.75H561.08V99.86h12.48V82.28l10.76-9.89,22.06,27.47h15.53Z"/></g></g></g></svg>